<?xml version="1.0" standalone="no"?>
<!DOCTYPE svg PUBLIC "-//W3C//DTD SVG 20010904//EN"
 "http://www.w3.org/TR/2001/REC-SVG-20010904/DTD/svg10.dtd">
<svg version="1.0" xmlns="http://www.w3.org/2000/svg"
 width="240.000000pt" height="240.000000pt" viewBox="0 0 240.000000 240.000000"
 preserveAspectRatio="xMidYMid meet">
<metadata>
Created by potrace 1.11, written by Peter Selinger 2001-2013
</metadata>
<g transform="translate(0.000000,240.000000) scale(0.100000,-0.100000)"
fill="#000000" stroke="none">
<path d="M1653 2371 c-10 -11 -47 -78 -83 -148 l-65 -129 -295 1 c-340 0 -553
-14 -691 -44 -24 -5 -60 -12 -79 -15 -42 -6 -155 -43 -192 -62 -41 -21 -67
-53 -62 -77 6 -31 36 -62 350 -354 60 -55 127 -118 150 -140 22 -21 94 -87
160 -148 65 -60 141 -131 169 -158 l52 -47 -1 -335 c-1 -209 -5 -337 -11 -343
-5 -5 -86 -48 -180 -97 -93 -48 -178 -94 -187 -103 -23 -20 -23 -64 -1 -84 33
-29 117 -53 248 -72 89 -14 388 -15 450 -2 17 3 46 9 65 13 19 3 41 7 48 9 28
5 109 37 125 49 9 7 20 26 23 42 5 28 2 34 -37 61 -24 16 -93 56 -154 88 -60
31 -128 67 -150 80 l-39 22 0 335 0 336 75 71 c41 40 160 154 264 254 105 101
230 221 279 267 273 257 270 254 223 306 -17 19 -93 55 -147 69 -54 14 -213
45 -255 50 -64 8 -70 15 -45 46 11 15 20 29 20 32 0 3 21 38 46 77 53 81 59
123 23 151 -28 24 -74 23 -96 -1z"/>
</g>
</svg>
